<mxfile host="app.diagrams.net" modified="2023-07-31T07:15:22.725Z" agent="Mozilla/5.0 (Windows NT 10.0; Win64; x64) AppleWebKit/537.36 (KHTML, like Gecko) Chrome/115.0.0.0 Safari/537.36" etag="dCUDMwFRyBf2tVbzvdmM" version="21.6.6" type="device" pages="2">
  <diagram name="Page-1" id="zNtbB_ZjCy_uueXA4wRB">
    <mxGraphModel dx="2097" dy="933" grid="1" gridSize="10" guides="1" tooltips="1" connect="1" arrows="1" fold="1" page="1" pageScale="1" pageWidth="1169" pageHeight="827" math="0" shadow="0">
      <root>
        <mxCell id="0" />
        <mxCell id="1" parent="0" />
        <mxCell id="cpnLHpahwuf8ljmfDg3--1" value="DEPATMENT" style="rounded=0;whiteSpace=wrap;html=1;direction=west;" parent="1" vertex="1">
          <mxGeometry x="290" y="250" width="120" height="40" as="geometry" />
        </mxCell>
        <mxCell id="cpnLHpahwuf8ljmfDg3--2" value="PROJECT" style="rounded=0;whiteSpace=wrap;html=1;" parent="1" vertex="1">
          <mxGeometry x="290" y="530" width="120" height="40" as="geometry" />
        </mxCell>
        <mxCell id="cpnLHpahwuf8ljmfDg3--3" value="EMPLOYEE" style="rounded=0;whiteSpace=wrap;html=1;" parent="1" vertex="1">
          <mxGeometry x="650" y="250" width="120" height="40" as="geometry" />
        </mxCell>
        <mxCell id="cpnLHpahwuf8ljmfDg3--10" value="manage by" style="rhombus;whiteSpace=wrap;html=1;" parent="1" vertex="1">
          <mxGeometry x="490" y="230" width="80" height="80" as="geometry" />
        </mxCell>
        <mxCell id="cpnLHpahwuf8ljmfDg3--21" value="controls&amp;nbsp;" style="rhombus;whiteSpace=wrap;html=1;rounded=0;" parent="1" vertex="1">
          <mxGeometry x="310" y="370" width="80" height="80" as="geometry" />
        </mxCell>
        <mxCell id="cpnLHpahwuf8ljmfDg3--25" value="DEPENDENT" style="shape=ext;margin=3;double=1;whiteSpace=wrap;html=1;align=center;rounded=0;strokeColor=default;fontFamily=Helvetica;fontSize=12;fontColor=default;fillColor=default;" parent="1" vertex="1">
          <mxGeometry x="650" y="530" width="120" height="40" as="geometry" />
        </mxCell>
        <mxCell id="cpnLHpahwuf8ljmfDg3--28" value="" style="edgeStyle=orthogonalEdgeStyle;rounded=0;orthogonalLoop=1;jettySize=auto;html=1;fontFamily=Helvetica;fontSize=12;fontColor=default;shape=link;" parent="1" source="cpnLHpahwuf8ljmfDg3--27" target="cpnLHpahwuf8ljmfDg3--25" edge="1">
          <mxGeometry relative="1" as="geometry" />
        </mxCell>
        <mxCell id="cpnLHpahwuf8ljmfDg3--27" value="has" style="shape=rhombus;double=1;perimeter=rhombusPerimeter;whiteSpace=wrap;html=1;align=center;rounded=0;strokeColor=default;fontFamily=Helvetica;fontSize=12;fontColor=default;fillColor=default;" parent="1" vertex="1">
          <mxGeometry x="665" y="370" width="90" height="80" as="geometry" />
        </mxCell>
        <mxCell id="cpnLHpahwuf8ljmfDg3--32" value="depName" style="ellipse;whiteSpace=wrap;html=1;rounded=0;strokeColor=default;fontFamily=Helvetica;fontSize=12;fontColor=default;fillColor=default;" parent="1" vertex="1">
          <mxGeometry x="160" y="212" width="90" height="40" as="geometry" />
        </mxCell>
        <mxCell id="cpnLHpahwuf8ljmfDg3--34" value="deptNO" style="ellipse;whiteSpace=wrap;html=1;rounded=0;strokeColor=default;fontFamily=Helvetica;fontSize=12;fontColor=default;fillColor=default;fontStyle=4" parent="1" vertex="1">
          <mxGeometry x="160" y="286" width="90" height="40" as="geometry" />
        </mxCell>
        <mxCell id="cpnLHpahwuf8ljmfDg3--46" value="empSalary" style="ellipse;whiteSpace=wrap;html=1;rounded=0;strokeColor=default;fontFamily=Helvetica;fontSize=12;fontColor=default;fillColor=default;" parent="1" vertex="1">
          <mxGeometry x="850" y="180" width="90" height="40" as="geometry" />
        </mxCell>
        <mxCell id="cpnLHpahwuf8ljmfDg3--47" value="empSex" style="ellipse;whiteSpace=wrap;html=1;rounded=0;strokeColor=default;fontFamily=Helvetica;fontSize=12;fontColor=default;fillColor=default;" parent="1" vertex="1">
          <mxGeometry x="850" y="227" width="90" height="40" as="geometry" />
        </mxCell>
        <mxCell id="cpnLHpahwuf8ljmfDg3--48" value="empAddress" style="ellipse;whiteSpace=wrap;html=1;rounded=0;strokeColor=default;fontFamily=Helvetica;fontSize=12;fontColor=default;fillColor=default;" parent="1" vertex="1">
          <mxGeometry x="850" y="276" width="90" height="40" as="geometry" />
        </mxCell>
        <mxCell id="cpnLHpahwuf8ljmfDg3--49" value="empSSNO" style="ellipse;whiteSpace=wrap;html=1;rounded=0;strokeColor=default;fontFamily=Helvetica;fontSize=12;fontColor=default;fillColor=default;fontStyle=4" parent="1" vertex="1">
          <mxGeometry x="850" y="325" width="90" height="40" as="geometry" />
        </mxCell>
        <mxCell id="cpnLHpahwuf8ljmfDg3--54" value="projectName" style="ellipse;whiteSpace=wrap;html=1;rounded=0;strokeColor=default;fontFamily=Helvetica;fontSize=12;fontColor=default;fillColor=default;" parent="1" vertex="1">
          <mxGeometry x="160" y="510" width="90" height="40" as="geometry" />
        </mxCell>
        <mxCell id="cpnLHpahwuf8ljmfDg3--55" value="&lt;u&gt;projectNo&lt;/u&gt;" style="ellipse;whiteSpace=wrap;html=1;rounded=0;strokeColor=default;fontFamily=Helvetica;fontSize=12;fontColor=default;fillColor=default;" parent="1" vertex="1">
          <mxGeometry x="160" y="610" width="90" height="40" as="geometry" />
        </mxCell>
        <mxCell id="cpnLHpahwuf8ljmfDg3--56" value="projectLocation" style="ellipse;whiteSpace=wrap;html=1;rounded=0;strokeColor=default;fontFamily=Helvetica;fontSize=12;fontColor=default;fillColor=default;" parent="1" vertex="1">
          <mxGeometry x="305" y="640" width="90" height="40" as="geometry" />
        </mxCell>
        <mxCell id="cpnLHpahwuf8ljmfDg3--60" value="depenName" style="ellipse;whiteSpace=wrap;html=1;rounded=0;strokeColor=default;fontFamily=Helvetica;fontSize=12;fontColor=default;fillColor=default;" parent="1" vertex="1">
          <mxGeometry x="591" y="610" width="90" height="40" as="geometry" />
        </mxCell>
        <mxCell id="cpnLHpahwuf8ljmfDg3--61" value="depenSex" style="ellipse;whiteSpace=wrap;html=1;rounded=0;strokeColor=default;fontFamily=Helvetica;fontSize=12;fontColor=default;fillColor=default;" parent="1" vertex="1">
          <mxGeometry x="695" y="610" width="90" height="40" as="geometry" />
        </mxCell>
        <mxCell id="cpnLHpahwuf8ljmfDg3--62" value="depenDOB" style="ellipse;whiteSpace=wrap;html=1;rounded=0;strokeColor=default;fontFamily=Helvetica;fontSize=12;fontColor=default;fillColor=default;" parent="1" vertex="1">
          <mxGeometry x="810" y="530" width="90" height="40" as="geometry" />
        </mxCell>
        <mxCell id="cpnLHpahwuf8ljmfDg3--63" value="depenRelationEmp" style="ellipse;whiteSpace=wrap;html=1;rounded=0;strokeColor=default;fontFamily=Helvetica;fontSize=12;fontColor=default;fillColor=default;" parent="1" vertex="1">
          <mxGeometry x="820" y="610" width="110" height="40" as="geometry" />
        </mxCell>
        <mxCell id="cpnLHpahwuf8ljmfDg3--68" value="supervises" style="rhombus;whiteSpace=wrap;html=1;rounded=0;" parent="1" vertex="1">
          <mxGeometry x="670" y="110" width="80" height="80" as="geometry" />
        </mxCell>
        <mxCell id="cpnLHpahwuf8ljmfDg3--72" value="manageStartDate" style="ellipse;whiteSpace=wrap;html=1;rounded=0;strokeColor=default;fontFamily=Helvetica;fontSize=12;fontColor=default;fillColor=default;" parent="1" vertex="1">
          <mxGeometry x="483" y="130" width="95" height="40" as="geometry" />
        </mxCell>
        <mxCell id="cpnLHpahwuf8ljmfDg3--74" value="works" style="rhombus;whiteSpace=wrap;html=1;" parent="1" vertex="1">
          <mxGeometry x="490" y="350" width="80" height="80" as="geometry" />
        </mxCell>
        <mxCell id="TCmt_dtpNxsOScfvOBvA-1" value="" style="endArrow=none;html=1;rounded=0;entryX=0;entryY=0.491;entryDx=0;entryDy=0;entryPerimeter=0;exitX=0;exitY=0.5;exitDx=0;exitDy=0;" edge="1" parent="1" source="cpnLHpahwuf8ljmfDg3--1" target="cpnLHpahwuf8ljmfDg3--10">
          <mxGeometry relative="1" as="geometry">
            <mxPoint x="420" y="280" as="sourcePoint" />
            <mxPoint x="460" y="300" as="targetPoint" />
          </mxGeometry>
        </mxCell>
        <mxCell id="TCmt_dtpNxsOScfvOBvA-2" value="" style="endArrow=none;html=1;rounded=0;exitX=0.997;exitY=0.645;exitDx=0;exitDy=0;exitPerimeter=0;entryX=1;entryY=1;entryDx=0;entryDy=0;" edge="1" parent="1" source="cpnLHpahwuf8ljmfDg3--32" target="cpnLHpahwuf8ljmfDg3--1">
          <mxGeometry relative="1" as="geometry">
            <mxPoint x="510" y="350" as="sourcePoint" />
            <mxPoint x="290" y="250" as="targetPoint" />
          </mxGeometry>
        </mxCell>
        <mxCell id="TCmt_dtpNxsOScfvOBvA-3" value="" style="endArrow=none;html=1;rounded=0;exitX=1;exitY=0.5;exitDx=0;exitDy=0;entryX=1;entryY=0;entryDx=0;entryDy=0;" edge="1" parent="1" source="cpnLHpahwuf8ljmfDg3--34" target="cpnLHpahwuf8ljmfDg3--1">
          <mxGeometry relative="1" as="geometry">
            <mxPoint x="260" y="246" as="sourcePoint" />
            <mxPoint x="300" y="260" as="targetPoint" />
          </mxGeometry>
        </mxCell>
        <mxCell id="TCmt_dtpNxsOScfvOBvA-6" value="" style="endArrow=none;html=1;rounded=0;entryX=0;entryY=0.5;entryDx=0;entryDy=0;entryPerimeter=0;exitX=0;exitY=0.5;exitDx=0;exitDy=0;" edge="1" parent="1" source="cpnLHpahwuf8ljmfDg3--1" target="cpnLHpahwuf8ljmfDg3--74">
          <mxGeometry relative="1" as="geometry">
            <mxPoint x="430" y="290" as="sourcePoint" />
            <mxPoint x="510" y="289" as="targetPoint" />
            <Array as="points">
              <mxPoint x="410" y="390" />
            </Array>
          </mxGeometry>
        </mxCell>
        <mxCell id="TCmt_dtpNxsOScfvOBvA-9" value="" style="endArrow=none;html=1;rounded=0;entryX=0.5;entryY=0;entryDx=0;entryDy=0;exitX=0.5;exitY=1;exitDx=0;exitDy=0;" edge="1" parent="1" source="cpnLHpahwuf8ljmfDg3--72" target="cpnLHpahwuf8ljmfDg3--10">
          <mxGeometry relative="1" as="geometry">
            <mxPoint x="420" y="280" as="sourcePoint" />
            <mxPoint x="500" y="279" as="targetPoint" />
          </mxGeometry>
        </mxCell>
        <mxCell id="TCmt_dtpNxsOScfvOBvA-10" value="" style="endArrow=none;html=1;rounded=0;entryX=0.01;entryY=0.124;entryDx=0;entryDy=0;exitX=0;exitY=0.5;exitDx=0;exitDy=0;entryPerimeter=0;" edge="1" parent="1" source="cpnLHpahwuf8ljmfDg3--68" target="cpnLHpahwuf8ljmfDg3--3">
          <mxGeometry relative="1" as="geometry">
            <mxPoint x="540" y="180" as="sourcePoint" />
            <mxPoint x="540" y="240" as="targetPoint" />
            <Array as="points">
              <mxPoint x="650" y="150" />
            </Array>
          </mxGeometry>
        </mxCell>
        <mxCell id="TCmt_dtpNxsOScfvOBvA-11" value="" style="endArrow=none;html=1;rounded=0;entryX=1;entryY=0;entryDx=0;entryDy=0;exitX=1;exitY=0.5;exitDx=0;exitDy=0;" edge="1" parent="1" source="cpnLHpahwuf8ljmfDg3--68" target="cpnLHpahwuf8ljmfDg3--3">
          <mxGeometry relative="1" as="geometry">
            <mxPoint x="680" y="160" as="sourcePoint" />
            <mxPoint x="661" y="265" as="targetPoint" />
            <Array as="points">
              <mxPoint x="770" y="150" />
            </Array>
          </mxGeometry>
        </mxCell>
        <mxCell id="TCmt_dtpNxsOScfvOBvA-12" value="" style="endArrow=none;html=1;rounded=0;exitX=1;exitY=0;exitDx=0;exitDy=0;entryX=0;entryY=0.5;entryDx=0;entryDy=0;" edge="1" parent="1" source="cpnLHpahwuf8ljmfDg3--3" target="cpnLHpahwuf8ljmfDg3--46">
          <mxGeometry relative="1" as="geometry">
            <mxPoint x="810" y="212" as="sourcePoint" />
            <mxPoint x="850" y="224" as="targetPoint" />
          </mxGeometry>
        </mxCell>
        <mxCell id="TCmt_dtpNxsOScfvOBvA-13" value="" style="endArrow=none;html=1;rounded=0;exitX=1;exitY=0;exitDx=0;exitDy=0;entryX=0;entryY=0.5;entryDx=0;entryDy=0;" edge="1" parent="1" source="cpnLHpahwuf8ljmfDg3--3" target="cpnLHpahwuf8ljmfDg3--47">
          <mxGeometry relative="1" as="geometry">
            <mxPoint x="780" y="260" as="sourcePoint" />
            <mxPoint x="860" y="210" as="targetPoint" />
          </mxGeometry>
        </mxCell>
        <mxCell id="TCmt_dtpNxsOScfvOBvA-14" value="" style="endArrow=none;html=1;rounded=0;exitX=1;exitY=1;exitDx=0;exitDy=0;entryX=0;entryY=0.5;entryDx=0;entryDy=0;" edge="1" parent="1" source="cpnLHpahwuf8ljmfDg3--3" target="cpnLHpahwuf8ljmfDg3--48">
          <mxGeometry relative="1" as="geometry">
            <mxPoint x="780" y="260" as="sourcePoint" />
            <mxPoint x="860" y="260" as="targetPoint" />
          </mxGeometry>
        </mxCell>
        <mxCell id="TCmt_dtpNxsOScfvOBvA-15" value="" style="endArrow=none;html=1;rounded=0;exitX=1;exitY=1;exitDx=0;exitDy=0;entryX=0;entryY=0.5;entryDx=0;entryDy=0;" edge="1" parent="1" source="cpnLHpahwuf8ljmfDg3--3" target="cpnLHpahwuf8ljmfDg3--49">
          <mxGeometry relative="1" as="geometry">
            <mxPoint x="780" y="300" as="sourcePoint" />
            <mxPoint x="860" y="310" as="targetPoint" />
          </mxGeometry>
        </mxCell>
        <mxCell id="TCmt_dtpNxsOScfvOBvA-16" value="" style="endArrow=none;html=1;rounded=0;exitX=0.5;exitY=1;exitDx=0;exitDy=0;entryX=0.5;entryY=0;entryDx=0;entryDy=0;" edge="1" parent="1" source="cpnLHpahwuf8ljmfDg3--3" target="cpnLHpahwuf8ljmfDg3--27">
          <mxGeometry relative="1" as="geometry">
            <mxPoint x="780" y="300" as="sourcePoint" />
            <mxPoint x="860" y="355" as="targetPoint" />
          </mxGeometry>
        </mxCell>
        <mxCell id="TCmt_dtpNxsOScfvOBvA-18" value="" style="endArrow=none;html=1;rounded=0;exitX=1;exitY=0.5;exitDx=0;exitDy=0;entryX=0;entryY=0.5;entryDx=0;entryDy=0;" edge="1" parent="1" source="cpnLHpahwuf8ljmfDg3--25" target="cpnLHpahwuf8ljmfDg3--62">
          <mxGeometry relative="1" as="geometry">
            <mxPoint x="790" y="420" as="sourcePoint" />
            <mxPoint x="790" y="500" as="targetPoint" />
          </mxGeometry>
        </mxCell>
        <mxCell id="TCmt_dtpNxsOScfvOBvA-19" value="" style="endArrow=none;html=1;rounded=0;exitX=1;exitY=1;exitDx=0;exitDy=0;entryX=0;entryY=0.5;entryDx=0;entryDy=0;" edge="1" parent="1" source="cpnLHpahwuf8ljmfDg3--25" target="cpnLHpahwuf8ljmfDg3--63">
          <mxGeometry relative="1" as="geometry">
            <mxPoint x="780" y="560" as="sourcePoint" />
            <mxPoint x="820" y="560" as="targetPoint" />
          </mxGeometry>
        </mxCell>
        <mxCell id="TCmt_dtpNxsOScfvOBvA-20" value="" style="endArrow=none;html=1;rounded=0;exitX=0.75;exitY=1;exitDx=0;exitDy=0;entryX=0.5;entryY=0;entryDx=0;entryDy=0;" edge="1" parent="1" source="cpnLHpahwuf8ljmfDg3--25" target="cpnLHpahwuf8ljmfDg3--61">
          <mxGeometry relative="1" as="geometry">
            <mxPoint x="780" y="580" as="sourcePoint" />
            <mxPoint x="830" y="630" as="targetPoint" />
          </mxGeometry>
        </mxCell>
        <mxCell id="TCmt_dtpNxsOScfvOBvA-21" value="" style="endArrow=none;html=1;rounded=0;exitX=0;exitY=1;exitDx=0;exitDy=0;entryX=0.5;entryY=0;entryDx=0;entryDy=0;" edge="1" parent="1" source="cpnLHpahwuf8ljmfDg3--25" target="cpnLHpahwuf8ljmfDg3--60">
          <mxGeometry relative="1" as="geometry">
            <mxPoint x="750" y="580" as="sourcePoint" />
            <mxPoint x="750" y="620" as="targetPoint" />
          </mxGeometry>
        </mxCell>
        <mxCell id="TCmt_dtpNxsOScfvOBvA-23" value="" style="endArrow=none;dashed=1;html=1;rounded=0;" edge="1" parent="1">
          <mxGeometry width="50" height="50" relative="1" as="geometry">
            <mxPoint x="601" y="640" as="sourcePoint" />
            <mxPoint x="671" y="640" as="targetPoint" />
          </mxGeometry>
        </mxCell>
        <mxCell id="TCmt_dtpNxsOScfvOBvA-24" value="" style="endArrow=none;html=1;rounded=0;exitX=0.5;exitY=1;exitDx=0;exitDy=0;entryX=0.5;entryY=0;entryDx=0;entryDy=0;" edge="1" parent="1" source="cpnLHpahwuf8ljmfDg3--2" target="cpnLHpahwuf8ljmfDg3--56">
          <mxGeometry relative="1" as="geometry">
            <mxPoint x="404" y="590" as="sourcePoint" />
            <mxPoint x="390" y="630" as="targetPoint" />
          </mxGeometry>
        </mxCell>
        <mxCell id="TCmt_dtpNxsOScfvOBvA-26" value="" style="endArrow=none;html=1;rounded=0;exitX=0;exitY=1;exitDx=0;exitDy=0;entryX=1;entryY=0.5;entryDx=0;entryDy=0;" edge="1" parent="1" source="cpnLHpahwuf8ljmfDg3--2" target="cpnLHpahwuf8ljmfDg3--55">
          <mxGeometry relative="1" as="geometry">
            <mxPoint x="360" y="580" as="sourcePoint" />
            <mxPoint x="365" y="650" as="targetPoint" />
          </mxGeometry>
        </mxCell>
        <mxCell id="TCmt_dtpNxsOScfvOBvA-27" value="" style="endArrow=none;html=1;rounded=0;exitX=0;exitY=0;exitDx=0;exitDy=0;entryX=1;entryY=0.5;entryDx=0;entryDy=0;" edge="1" parent="1" source="cpnLHpahwuf8ljmfDg3--2" target="cpnLHpahwuf8ljmfDg3--54">
          <mxGeometry relative="1" as="geometry">
            <mxPoint x="300" y="580" as="sourcePoint" />
            <mxPoint x="258" y="629" as="targetPoint" />
          </mxGeometry>
        </mxCell>
        <mxCell id="TCmt_dtpNxsOScfvOBvA-29" value="" style="endArrow=none;html=1;rounded=0;exitX=0.5;exitY=0;exitDx=0;exitDy=0;entryX=0.5;entryY=0;entryDx=0;entryDy=0;" edge="1" parent="1" source="cpnLHpahwuf8ljmfDg3--21" target="cpnLHpahwuf8ljmfDg3--1">
          <mxGeometry relative="1" as="geometry">
            <mxPoint x="360" y="385" as="sourcePoint" />
            <mxPoint x="360" y="305" as="targetPoint" />
          </mxGeometry>
        </mxCell>
        <mxCell id="TCmt_dtpNxsOScfvOBvA-30" value="1" style="resizable=0;html=1;whiteSpace=wrap;align=left;verticalAlign=bottom;" connectable="0" vertex="1" parent="1">
          <mxGeometry x="352" y="310" as="geometry" />
        </mxCell>
        <mxCell id="TCmt_dtpNxsOScfvOBvA-31" value="M" style="resizable=0;html=1;whiteSpace=wrap;align=left;verticalAlign=bottom;" connectable="0" vertex="1" parent="1">
          <mxGeometry x="353" y="528" as="geometry" />
        </mxCell>
        <mxCell id="TCmt_dtpNxsOScfvOBvA-33" value="empDOB" style="ellipse;whiteSpace=wrap;html=1;rounded=0;strokeColor=default;fontFamily=Helvetica;fontSize=12;fontColor=default;fillColor=default;" vertex="1" parent="1">
          <mxGeometry x="850" y="374" width="90" height="40" as="geometry" />
        </mxCell>
        <mxCell id="TCmt_dtpNxsOScfvOBvA-34" value="" style="endArrow=none;html=1;rounded=0;exitX=1;exitY=1;exitDx=0;exitDy=0;entryX=0;entryY=0.5;entryDx=0;entryDy=0;" edge="1" parent="1" target="TCmt_dtpNxsOScfvOBvA-33" source="cpnLHpahwuf8ljmfDg3--3">
          <mxGeometry relative="1" as="geometry">
            <mxPoint x="810" y="394" as="sourcePoint" />
            <mxPoint x="830" y="344" as="targetPoint" />
          </mxGeometry>
        </mxCell>
        <mxCell id="TCmt_dtpNxsOScfvOBvA-35" value="empAge" style="ellipse;whiteSpace=wrap;html=1;align=center;dashed=1;" vertex="1" parent="1">
          <mxGeometry x="840" y="120" width="100" height="40" as="geometry" />
        </mxCell>
        <mxCell id="TCmt_dtpNxsOScfvOBvA-36" value="" style="endArrow=none;html=1;rounded=0;exitX=1;exitY=0;exitDx=0;exitDy=0;entryX=0;entryY=0.5;entryDx=0;entryDy=0;" edge="1" parent="1" source="cpnLHpahwuf8ljmfDg3--3" target="TCmt_dtpNxsOScfvOBvA-35">
          <mxGeometry relative="1" as="geometry">
            <mxPoint x="780" y="260" as="sourcePoint" />
            <mxPoint x="860" y="210" as="targetPoint" />
          </mxGeometry>
        </mxCell>
        <mxCell id="TCmt_dtpNxsOScfvOBvA-37" value="works" style="rhombus;whiteSpace=wrap;html=1;" vertex="1" parent="1">
          <mxGeometry x="490.5" y="480" width="80" height="80" as="geometry" />
        </mxCell>
        <mxCell id="TCmt_dtpNxsOScfvOBvA-38" value="" style="endArrow=none;html=1;rounded=0;entryX=0;entryY=0.5;entryDx=0;entryDy=0;entryPerimeter=0;exitX=1;exitY=0.5;exitDx=0;exitDy=0;" edge="1" parent="1" target="TCmt_dtpNxsOScfvOBvA-37" source="cpnLHpahwuf8ljmfDg3--2">
          <mxGeometry relative="1" as="geometry">
            <mxPoint x="410.5" y="400" as="sourcePoint" />
            <mxPoint x="510.5" y="419" as="targetPoint" />
            <Array as="points">
              <mxPoint x="490" y="550" />
            </Array>
          </mxGeometry>
        </mxCell>
        <mxCell id="TCmt_dtpNxsOScfvOBvA-39" value="" style="endArrow=none;html=1;rounded=0;entryX=0;entryY=1;entryDx=0;entryDy=0;exitX=1;exitY=0.5;exitDx=0;exitDy=0;" edge="1" parent="1" source="TCmt_dtpNxsOScfvOBvA-37" target="cpnLHpahwuf8ljmfDg3--3">
          <mxGeometry relative="1" as="geometry">
            <mxPoint x="440.5" y="430" as="sourcePoint" />
            <mxPoint x="650.5" y="400" as="targetPoint" />
            <Array as="points">
              <mxPoint x="640" y="520" />
              <mxPoint x="640" y="290" />
            </Array>
          </mxGeometry>
        </mxCell>
        <mxCell id="TCmt_dtpNxsOScfvOBvA-40" value="" style="shape=link;html=1;rounded=0;exitX=1;exitY=0.5;exitDx=0;exitDy=0;entryX=0;entryY=0.75;entryDx=0;entryDy=0;" edge="1" parent="1" source="cpnLHpahwuf8ljmfDg3--74" target="cpnLHpahwuf8ljmfDg3--3">
          <mxGeometry relative="1" as="geometry">
            <mxPoint x="450" y="280" as="sourcePoint" />
            <mxPoint x="610" y="280" as="targetPoint" />
            <Array as="points">
              <mxPoint x="570" y="280" />
            </Array>
          </mxGeometry>
        </mxCell>
        <object label="M" id="TCmt_dtpNxsOScfvOBvA-41">
          <mxCell style="resizable=0;html=1;whiteSpace=wrap;align=right;verticalAlign=bottom;" connectable="0" vertex="1" parent="TCmt_dtpNxsOScfvOBvA-40">
            <mxGeometry x="1" relative="1" as="geometry">
              <mxPoint x="-30" y="26" as="offset" />
            </mxGeometry>
          </mxCell>
        </object>
        <mxCell id="TCmt_dtpNxsOScfvOBvA-42" value="" style="shape=link;html=1;rounded=0;exitX=0.5;exitY=0;exitDx=0;exitDy=0;entryX=0.5;entryY=1;entryDx=0;entryDy=0;" edge="1" parent="1" source="cpnLHpahwuf8ljmfDg3--2" target="cpnLHpahwuf8ljmfDg3--21">
          <mxGeometry relative="1" as="geometry">
            <mxPoint x="420" y="570" as="sourcePoint" />
            <mxPoint x="500" y="460" as="targetPoint" />
            <Array as="points" />
          </mxGeometry>
        </mxCell>
        <mxCell id="TCmt_dtpNxsOScfvOBvA-43" value="N" style="resizable=0;html=1;whiteSpace=wrap;align=right;verticalAlign=bottom;" connectable="0" vertex="1" parent="TCmt_dtpNxsOScfvOBvA-42">
          <mxGeometry x="1" relative="1" as="geometry">
            <mxPoint x="-59" y="90" as="offset" />
          </mxGeometry>
        </mxCell>
        <mxCell id="TCmt_dtpNxsOScfvOBvA-44" value="" style="shape=link;html=1;rounded=0;exitX=0;exitY=0.5;exitDx=0;exitDy=0;entryX=1;entryY=0.5;entryDx=0;entryDy=0;" edge="1" parent="1" source="cpnLHpahwuf8ljmfDg3--3" target="cpnLHpahwuf8ljmfDg3--10">
          <mxGeometry relative="1" as="geometry">
            <mxPoint x="460" y="510" as="sourcePoint" />
            <mxPoint x="460" y="430" as="targetPoint" />
            <Array as="points" />
          </mxGeometry>
        </mxCell>
        <mxCell id="TCmt_dtpNxsOScfvOBvA-45" value="1" style="resizable=0;html=1;whiteSpace=wrap;align=right;verticalAlign=bottom;" connectable="0" vertex="1" parent="TCmt_dtpNxsOScfvOBvA-44">
          <mxGeometry x="1" relative="1" as="geometry">
            <mxPoint x="-140" y="40" as="offset" />
          </mxGeometry>
        </mxCell>
        <object label="M" id="klslSulgDRm_iJpl-Aas-1">
          <mxCell style="resizable=0;html=1;whiteSpace=wrap;align=right;verticalAlign=bottom;" connectable="0" vertex="1" parent="1">
            <mxGeometry x="630" y="316.0000000000002" as="geometry">
              <mxPoint x="30" y="-1" as="offset" />
            </mxGeometry>
          </mxCell>
        </object>
        <object label="N" id="klslSulgDRm_iJpl-Aas-2">
          <mxCell style="resizable=0;html=1;whiteSpace=wrap;align=right;verticalAlign=bottom;" connectable="0" vertex="1" parent="1">
            <mxGeometry x="480" y="350.0000000000002" as="geometry">
              <mxPoint x="-46" y="199" as="offset" />
            </mxGeometry>
          </mxCell>
        </object>
        <mxCell id="klslSulgDRm_iJpl-Aas-3" value="noOfHoursWeek" style="ellipse;whiteSpace=wrap;html=1;rounded=0;strokeColor=default;fontFamily=Helvetica;fontSize=12;fontColor=default;fillColor=default;" vertex="1" parent="1">
          <mxGeometry x="477" y="583" width="105" height="37" as="geometry" />
        </mxCell>
        <mxCell id="klslSulgDRm_iJpl-Aas-4" value="" style="endArrow=none;html=1;rounded=0;exitX=0.5;exitY=1;exitDx=0;exitDy=0;entryX=0.5;entryY=0;entryDx=0;entryDy=0;" edge="1" parent="1" target="klslSulgDRm_iJpl-Aas-3" source="TCmt_dtpNxsOScfvOBvA-37">
          <mxGeometry relative="1" as="geometry">
            <mxPoint x="530" y="560" as="sourcePoint" />
            <mxPoint x="570" y="620" as="targetPoint" />
          </mxGeometry>
        </mxCell>
        <object label="1" id="klslSulgDRm_iJpl-Aas-5">
          <mxCell style="resizable=0;html=1;whiteSpace=wrap;align=right;verticalAlign=bottom;" connectable="0" vertex="1" parent="1">
            <mxGeometry x="630" y="316.0000000000002" as="geometry">
              <mxPoint x="37" y="-78" as="offset" />
            </mxGeometry>
          </mxCell>
        </object>
        <object label="M" id="klslSulgDRm_iJpl-Aas-6">
          <mxCell style="resizable=0;html=1;whiteSpace=wrap;align=right;verticalAlign=bottom;" connectable="0" vertex="1" parent="1">
            <mxGeometry x="730" y="316.0000000000002" as="geometry">
              <mxPoint x="37" y="-78" as="offset" />
            </mxGeometry>
          </mxCell>
        </object>
        <object label="1" id="klslSulgDRm_iJpl-Aas-7">
          <mxCell style="resizable=0;html=1;whiteSpace=wrap;align=right;verticalAlign=bottom;" connectable="0" vertex="1" parent="1">
            <mxGeometry x="636" y="310.0000000000002" as="geometry">
              <mxPoint x="94" y="3" as="offset" />
            </mxGeometry>
          </mxCell>
        </object>
        <object label="M" id="klslSulgDRm_iJpl-Aas-8">
          <mxCell style="resizable=0;html=1;whiteSpace=wrap;align=right;verticalAlign=bottom;" connectable="0" vertex="1" parent="1">
            <mxGeometry x="636" y="520.0000000000002" as="geometry">
              <mxPoint x="94" y="3" as="offset" />
            </mxGeometry>
          </mxCell>
        </object>
        <mxCell id="klslSulgDRm_iJpl-Aas-9" value="1" style="resizable=0;html=1;whiteSpace=wrap;align=right;verticalAlign=bottom;" connectable="0" vertex="1" parent="1">
          <mxGeometry x="440" y="320.0000000000002" as="geometry">
            <mxPoint x="-11" y="-58" as="offset" />
          </mxGeometry>
        </mxCell>
        <mxCell id="klslSulgDRm_iJpl-Aas-10" value="1" style="resizable=0;html=1;whiteSpace=wrap;align=right;verticalAlign=bottom;" connectable="0" vertex="1" parent="1">
          <mxGeometry x="450" y="324.0000000000002" as="geometry">
            <mxPoint x="184" y="-62" as="offset" />
          </mxGeometry>
        </mxCell>
      </root>
    </mxGraphModel>
  </diagram>
  <diagram id="Ki9uvyk_9DptMVhQAOS2" name="Page-2">
    <mxGraphModel dx="606" dy="600" grid="1" gridSize="10" guides="1" tooltips="1" connect="1" arrows="1" fold="1" page="1" pageScale="1" pageWidth="1169" pageHeight="827" math="0" shadow="0">
      <root>
        <mxCell id="0" />
        <mxCell id="1" parent="0" />
      </root>
    </mxGraphModel>
  </diagram>
</mxfile>
